# xmcd
#
# Track frame offsets:
# 150
# 20502
# 46282
# 64843
# 79824
# 103825
# 120570
# 141272
# 159756
# 178229
# 198373
# 217424
# 236036
# 258102
#
# Disc length: 3801 seconds
#
#
# Revision: 0
# Processed by: cddbd v1.5.2PL0 Copyright (c) Steve Scherf et al.
# Submitted via: FreeRIP 2.96 
#
DISCID=c90ed70e
DTITLE=Hieroglyphics - Over Time
DYEAR=2007
DGENRE=Hip-Hop
TTITLE0=You Never Knew (Domino Remix)
TTITLE1=Master Minds
TTITLE2=Prose Officially
TTITLE3=Greed
TTITLE4=Phoney Phranchise (Domino Remix)
TTITLE5=Soundscience (Tommy Tee Remix)
TTITLE6=It's About Time
TTITLE7=The Scandle
TTITLE8=Battle of the Shadow
TTITLE9=Fight Club (Remix)
TTITLE10=Unseen Hand
TTITLE11=If You Must (Automator Remix)
TTITLE12=Heat
TTITLE13=Cyberpunks
EXTD=
EXTT0=
EXTT1=
EXTT2=
EXTT3=
EXTT4=
EXTT5=
EXTT6=
EXTT7=
EXTT8=
EXTT9=
EXTT10=
EXTT11=
EXTT12=
EXTT13=
PLAYORDER=
